{
	"asset":{
		"generator":"Khronos glTF Blender I/O v4.2.57",
		"version":"2.0"
	},
	"scene":0,
	"scenes":[
		{
			"name":"Scene",
			"nodes":[
				0
			]
		}
	],
	"nodes":[
		{
			"mesh":0,
			"name":"Barrel",
			"scale":[
				1.2305574417114258,
				1.2305574417114258,
				1.2305574417114258
			],
			"translation":[
				0,
				2.3023922443389893,
				0
			]
		}
	],
	"materials":[
		{
			"doubleSided":true,
			"name":"metal"
		},
		{
			"doubleSided":true,
			"name":"Wood_boards"
		}
	],
	"meshes":[
		{
			"name":"Circle.004",
			"primitives":[
				{
					"attributes":{
						"POSITION":0,
						"NORMAL":1,
						"TEXCOORD_0":2
					},
					"indices":3,
					"material":0
				},
				{
					"attributes":{
						"POSITION":4,
						"NORMAL":5,
						"TEXCOORD_0":6
					},
					"indices":7,
					"material":1
				}
			]
		}
	],
	"accessors":[
		{
			"bufferView":0,
			"componentType":5126,
			"count":792,
			"max":[
				1,
				0.7632409334182739,
				1.0000001192092896
			],
			"min":[
				-1,
				-1.8221850395202637,
				-1
			],
			"type":"VEC3"
		},
		{
			"bufferView":1,
			"componentType":5126,
			"count":792,
			"type":"VEC3"
		},
		{
			"bufferView":2,
			"componentType":5126,
			"count":792,
			"type":"VEC2"
		},
		{
			"bufferView":3,
			"componentType":5123,
			"count":3456,
			"type":"SCALAR"
		},
		{
			"bufferView":4,
			"componentType":5126,
			"count":915,
			"max":[
				1.0293216705322266,
				0.7497669458389282,
				1.0293216705322266
			],
			"min":[
				-1.0293216705322266,
				-1.8710156679153442,
				-1.029321551322937
			],
			"type":"VEC3"
		},
		{
			"bufferView":5,
			"componentType":5126,
			"count":915,
			"type":"VEC3"
		},
		{
			"bufferView":6,
			"componentType":5126,
			"count":915,
			"type":"VEC2"
		},
		{
			"bufferView":7,
			"componentType":5123,
			"count":4596,
			"type":"SCALAR"
		}
	],
	"bufferViews":[
		{
			"buffer":0,
			"byteLength":9504,
			"byteOffset":0,
			"target":34962
		},
		{
			"buffer":0,
			"byteLength":9504,
			"byteOffset":9504,
			"target":34962
		},
		{
			"buffer":0,
			"byteLength":6336,
			"byteOffset":19008,
			"target":34962
		},
		{
			"buffer":0,
			"byteLength":6912,
			"byteOffset":25344,
			"target":34963
		},
		{
			"buffer":0,
			"byteLength":10980,
			"byteOffset":32256,
			"target":34962
		},
		{
			"buffer":0,
			"byteLength":10980,
			"byteOffset":43236,
			"target":34962
		},
		{
			"buffer":0,
			"byteLength":7320,
			"byteOffset":54216,
			"target":34962
		},
		{
			"buffer":0,
			"byteLength":9192,
			"byteOffset":61536,
			"target":34963
		}
	],
	"buffers":[
		{
			"byteLength":70728,
			"uri":"barrel.bin"
		}
	]
}
